<?xml version="1.0" encoding="iso-8859-1"?>
<!-- Uploaded to: SVG Repo, www.svgrepo.com, Generator: SVG Repo Mixer Tools -->
<svg height="800px" width="800px" version="1.1" id="Layer_1" xmlns="http://www.w3.org/2000/svg" xmlns:xlink="http://www.w3.org/1999/xlink" 
	 viewBox="0 0 512 512" xml:space="preserve">
<path style="fill:#4DDCD3;" d="M0,339.478C0,434.759,77.241,512,172.522,512l22.261-172.522l-22.261-172.522
	C77.241,166.957,0,244.197,0,339.478z"/>
<path style="fill:#00CCC1;" d="M172.522,166.957V512c95.281,0,172.522-77.241,172.522-172.522S267.803,166.957,172.522,166.957z"/>
<path style="fill:#FF1A26;" d="M66.783,339.478c0,58.305,47.435,105.739,105.739,105.739l22.261-105.739l-22.261-105.739
	C114.217,233.739,66.783,281.174,66.783,339.478z"/>
<path style="fill:#C0141C;" d="M278.111,333.795l-99.903-99.905c-1.882-0.1-3.778-0.151-5.685-0.151v211.478
	c58.305,0,105.739-47.435,105.739-105.739C278.261,337.572,278.21,335.677,278.111,333.795z"/>
<path style="fill:#4DDCD3;" d="M339.478,0l-22.261,187.176l22.261,157.867c95.281,0,172.522-77.241,172.522-172.522
	S434.759,0,339.478,0z"/>
<path style="fill:#99EBE6;" d="M339.478,50.087V0c-95.281,0-172.522,77.241-172.522,172.522s77.241,172.522,172.522,172.522V83.478
	c49.099,0,89.043,39.945,89.043,89.043h33.391C461.913,105.011,406.989,50.087,339.478,50.087z"/>
</svg>